<svg width="42" height="42" viewBox="0 0 42 42" fill="none" xmlns="http://www.w3.org/2000/svg">
<g id="icon/ic_kia_connect_42px">
<path id="Union" fill-rule="evenodd" clip-rule="evenodd" d="M24.111 17.0851C24.0696 17.0851 24.048 17.0447 24.048 16.974H24.0473V9.76686C24.0473 9.3636 23.7802 9.09454 23.3798 9.09454H17.6042C17.3095 9.09454 17.152 9.14081 16.896 9.29617L6.16242 15.7926L6.16012 15.794C6.12509 15.8152 6.09682 15.8323 6.06791 15.8323C6.02328 15.8323 6.00425 15.7999 6.00425 15.7312V9.1613C6.00425 9.0509 5.978 9 5.93008 9C5.90383 9 5.87561 9.00793 5.8441 9.02777L2.66748 10.9502C2.13455 11.2728 2 11.6205 2 12.2254V17.1393C2 17.5425 2.26713 17.8116 2.66748 17.8116H6.47615C6.72096 17.8116 6.89423 17.762 7.14429 17.6106L11.2818 15.1064C11.3074 15.0899 11.3362 15.0793 11.3579 15.0793C11.3842 15.0793 11.4052 15.0945 11.4294 15.119L13.9025 17.61C14.0587 17.7673 14.2812 17.8116 14.5706 17.8116H18.2618C18.3314 17.8116 18.3911 17.7898 18.3911 17.7409C18.3911 17.6979 18.3537 17.6562 18.2992 17.6014L14.2208 13.4934C14.1801 13.4524 14.1703 13.4299 14.1703 13.4048C14.1703 13.3777 14.186 13.3486 14.2431 13.3142L19.9538 9.85941C19.9899 9.83693 20.0175 9.82437 20.047 9.82437C20.087 9.82437 20.1107 9.87263 20.1107 9.92552V17.1393C20.1107 17.5425 20.3778 17.8116 20.7782 17.8116H26.5184C26.7402 17.8116 26.9398 17.764 27.1826 17.6053L35.8415 11.9405C35.8756 11.9193 35.9032 11.9061 35.9327 11.9061C35.9754 11.9061 35.9964 11.955 35.9964 12.0185V17.8612C35.9964 17.9703 36.0318 18 36.0699 18C36.0994 18 36.1336 17.9868 36.1756 17.9603L39.3332 16.0498C39.8668 15.7265 40 15.3775 40 14.7726V9.76686C40 9.3636 39.7329 9.09454 39.3325 9.09454H36.7295C36.4453 9.09454 36.255 9.16659 36.0469 9.30344L24.2029 17.0494C24.1687 17.0718 24.1405 17.0851 24.111 17.0851ZM1.52246 28.2599C1.52246 27.5266 1.67579 26.8666 1.98246 26.2799C2.28913 25.6932 2.72913 25.2332 3.30246 24.8999C3.87579 24.5666 4.55246 24.3999 5.33246 24.3999C5.77246 24.3999 6.20246 24.4699 6.62246 24.6099C7.04246 24.7499 7.38913 24.9266 7.66246 25.1399V26.6699C7.37579 26.3032 7.03913 26.0166 6.65246 25.8099C6.27246 25.5966 5.84913 25.4899 5.38246 25.4899C4.93579 25.4899 4.52913 25.6066 4.16246 25.8399C3.80246 26.0666 3.51579 26.3899 3.30246 26.8099C3.08913 27.2299 2.98246 27.7132 2.98246 28.2599V28.4399C2.98246 28.9799 3.08913 29.4599 3.30246 29.8799C3.51579 30.2999 3.80579 30.6266 4.17246 30.8599C4.53913 31.0932 4.94246 31.2099 5.38246 31.2099C5.84913 31.2099 6.27246 31.1066 6.65246 30.8999C7.03913 30.6866 7.37579 30.3966 7.66246 30.0299V31.5599C7.38913 31.7732 7.04246 31.9499 6.62246 32.0899C6.20246 32.2299 5.77246 32.2999 5.33246 32.2999C4.55246 32.2999 3.87579 32.1332 3.30246 31.7999C2.72913 31.4666 2.28913 31.0066 1.98246 30.4199C1.67579 29.8332 1.52246 29.1732 1.52246 28.4399V28.2599ZM8.51113 29.3299C8.51113 28.8099 8.6278 28.3366 8.86113 27.9099C9.10113 27.4832 9.4278 27.1499 9.84113 26.9099C10.2611 26.6632 10.7311 26.5399 11.2511 26.5399C11.7711 26.5399 12.2378 26.6632 12.6511 26.9099C13.0711 27.1499 13.3978 27.4832 13.6311 27.9099C13.8711 28.3366 13.9911 28.8099 13.9911 29.3299V29.4999C13.9911 30.0332 13.8711 30.5132 13.6311 30.9399C13.3978 31.3599 13.0711 31.6932 12.6511 31.9399C12.2378 32.1799 11.7711 32.2999 11.2511 32.2999C10.7311 32.2999 10.2611 32.1799 9.84113 31.9399C9.4278 31.6932 9.10113 31.3566 8.86113 30.9299C8.6278 30.5032 8.51113 30.0266 8.51113 29.4999V29.3299ZM9.85113 29.4999C9.85113 30.0199 9.97447 30.4532 10.2211 30.7999C10.4678 31.1399 10.8111 31.3099 11.2511 31.3099C11.6911 31.3099 12.0345 31.1399 12.2811 30.7999C12.5278 30.4532 12.6511 30.0199 12.6511 29.4999V29.3299C12.6511 28.8166 12.5278 28.3899 12.2811 28.0499C12.0345 27.7032 11.6911 27.5299 11.2511 27.5299C10.8111 27.5299 10.4678 27.7032 10.2211 28.0499C9.97447 28.3899 9.85113 28.8166 9.85113 29.3299V29.4999ZM15.0404 26.6899V32.1499H16.3304V28.8199C16.4438 28.4666 16.6438 28.1666 16.9304 27.9199C17.2238 27.6666 17.5338 27.5399 17.8604 27.5399C18.4204 27.5399 18.7004 27.8866 18.7004 28.5799V32.1499H19.9904V28.5799C19.9904 27.9266 19.8204 27.4232 19.4804 27.0699C19.1471 26.7166 18.6771 26.5399 18.0704 26.5399C17.7038 26.5399 17.3704 26.6299 17.0704 26.8099C16.7704 26.9899 16.5238 27.2132 16.3304 27.4799L16.2504 26.6899H15.0404ZM21.2881 32.1499V26.6899H22.4981L22.5781 27.4799C22.7714 27.2132 23.0181 26.9899 23.3181 26.8099C23.6181 26.6299 23.9514 26.5399 24.3181 26.5399C24.9248 26.5399 25.3948 26.7166 25.7281 27.0699C26.0681 27.4232 26.2381 27.9266 26.2381 28.5799V32.1499H24.9481V28.5799C24.9481 27.8866 24.6681 27.5399 24.1081 27.5399C23.7814 27.5399 23.4714 27.6666 23.1781 27.9199C22.8914 28.1666 22.6914 28.4666 22.5781 28.8199V32.1499H21.2881ZM27.4557 27.8899C27.2424 28.3099 27.1357 28.7832 27.1357 29.3099V29.5099C27.1357 30.0566 27.2424 30.5399 27.4557 30.9599C27.6691 31.3799 27.9824 31.7099 28.3957 31.9499C28.8157 32.1832 29.3191 32.2999 29.9057 32.2999C30.2857 32.2999 30.6424 32.2466 30.9757 32.1399C31.3157 32.0399 31.6057 31.8966 31.8457 31.7099V30.4799C31.5524 30.7799 31.2524 30.9932 30.9457 31.1199C30.6391 31.2466 30.3091 31.3099 29.9557 31.3099C29.5024 31.3099 29.1424 31.1866 28.8757 30.9399C28.6091 30.6866 28.4524 30.3299 28.4057 29.8699H32.2157V29.3699C32.2157 28.4899 31.9957 27.7999 31.5557 27.2999C31.1224 26.7932 30.5091 26.5399 29.7157 26.5399C29.2091 26.5399 28.7591 26.6599 28.3657 26.8999C27.9791 27.1332 27.6757 27.4632 27.4557 27.8899ZM30.5957 27.8799C30.8224 28.1199 30.9357 28.4566 30.9357 28.8899H28.4157C28.4424 28.4766 28.5757 28.1432 28.8157 27.8899C29.0624 27.6366 29.3591 27.5099 29.7057 27.5099C30.0791 27.5099 30.3757 27.6332 30.5957 27.8799ZM32.9158 29.3199C32.9158 28.8199 33.0358 28.3566 33.2758 27.9299C33.5158 27.5032 33.8558 27.1666 34.2958 26.9199C34.7358 26.6666 35.2425 26.5399 35.8158 26.5399C36.1292 26.5399 36.4225 26.5866 36.6958 26.6799C36.9692 26.7666 37.2025 26.8799 37.3958 27.0199V28.3399C37.2158 28.0799 36.9925 27.8866 36.7258 27.7599C36.4658 27.6266 36.1925 27.5599 35.9058 27.5599C35.6125 27.5599 35.3392 27.6332 35.0858 27.7799C34.8392 27.9266 34.6392 28.1332 34.4858 28.3999C34.3392 28.6666 34.2658 28.9732 34.2658 29.3199V29.5199C34.2658 29.8466 34.3425 30.1466 34.4958 30.4199C34.6492 30.6866 34.8525 30.8966 35.1058 31.0499C35.3592 31.1966 35.6258 31.2699 35.9058 31.2699C36.4725 31.2699 36.9692 31.0199 37.3958 30.5199V31.7999C37.2092 31.9466 36.9792 32.0666 36.7058 32.1599C36.4325 32.2532 36.1225 32.2999 35.7758 32.2999C35.2225 32.2999 34.7258 32.1766 34.2858 31.9299C33.8525 31.6766 33.5158 31.3399 33.2758 30.9199C33.0358 30.4932 32.9158 30.0299 32.9158 29.5299V29.3199ZM38.0932 27.6799H39.2732V32.1499H40.5632V27.6799H41.7732V26.6899H40.5632V25.0299H39.2732V26.6899H38.0932V27.6799Z" fill="white"/>
</g>
</svg>
